HIERARCHY
ROOT SpineBase
{
  OFFSET 0.000000 0.000000 0.000000
  CHANNELS 6 Xposition Yposition Zposition Zrotation Xrotation Yrotation
  JOINT SpineMid
  {
    OFFSET 0.000000 31.281600 0.000000
    CHANNELS 3 Zrotation Xrotation Yrotation
    JOINT SpineShoulder
    {
      OFFSET -0.259932 23.205648 -0.737912
      CHANNELS 3 Zrotation Xrotation Yrotation
      JOINT Neck
      {
        OFFSET -0.126088 7.675637 -0.602437
        CHANNELS 3 Zrotation Xrotation Yrotation
        JOINT Head
        {
          OFFSET -4.140956 10.957040 1.291769
          CHANNELS 3 Zrotation Xrotation Yrotation
          End Site
          {
            OFFSET 0 0 0
          }
        }
      }
      JOINT ShoulderLeft
      {
        OFFSET -16.054918 -5.502356 7.230160
        CHANNELS 3 Zrotation Xrotation Yrotation
        JOINT ElbowLeft
        {
          OFFSET -2.310660 -27.704148 0.127127
          CHANNELS 3 Zrotation Xrotation Yrotation
          JOINT WristLeft
          {
            OFFSET -3.363407 -22.718603 -4.887781
            CHANNELS 3 Zrotation Xrotation Yrotation
            JOINT HandLeft
            {
              OFFSET 0.845478 -6.578596 -1.734703
              CHANNELS 3 Zrotation Xrotation Yrotation
              JOINT HandTipLeft
              {
                OFFSET -1.182681 -5.212227 -2.680432
                CHANNELS 3 Zrotation Xrotation Yrotation
                End Site
                {
                  OFFSET 0 0 0
                }
              }
              JOINT ThumbLeft
              {
                OFFSET 3.767023 0.288120 -2.559445
                CHANNELS 3 Zrotation Xrotation Yrotation
                End Site
                {
                  OFFSET 0 0 0
                }
              }
            }
          }
        }
      }
      JOINT ShoulderRight
      {
        OFFSET 14.185785 -2.048451 -9.426113
        CHANNELS 3 Zrotation Xrotation Yrotation
        JOINT ElbowRight
        {
          OFFSET 8.085719 -22.745482 -4.401779
          CHANNELS 3 Zrotation Xrotation Yrotation
          JOINT WristRight
          {
            OFFSET -6.719650 -22.708234 -6.979526
            CHANNELS 3 Zrotation Xrotation Yrotation
            JOINT HandRight
            {
              OFFSET -4.031160 -7.138851 -1.239640
              CHANNELS 3 Zrotation Xrotation Yrotation
              JOINT HandTipRight
              {
                OFFSET -2.586506 -6.247499 -1.001129
                CHANNELS 3 Zrotation Xrotation Yrotation
                End Site
                {
                  OFFSET 0 0 0
                }
              }
              JOINT ThumbRight
              {
                OFFSET 1.847857 -2.008818 -2.376369
                CHANNELS 3 Zrotation Xrotation Yrotation
                End Site
                {
                  OFFSET 0 0 0
                }
              }
            }
          }
        }
      }
    }
  }
  JOINT HipLeft
  {
    OFFSET -5.205978 0.519172 -0.726748
    CHANNELS 3 Zrotation Xrotation Yrotation
    JOINT KneeLeft
    {
      OFFSET -0.612232 -35.551067 -0.844293
      CHANNELS 3 Zrotation Xrotation Yrotation
      JOINT AnkleLeft
      {
        OFFSET 2.064323 -35.970018 4.500075
        CHANNELS 3 Zrotation Xrotation Yrotation
        JOINT FootLeft
        {
          OFFSET -1.326638 -7.682905 -6.788510
          CHANNELS 3 Zrotation Xrotation Yrotation
          End Site
          {
            OFFSET 0 0 0
          }
        }
      }
    }
  }
  JOINT HipRight
  {
    OFFSET 4.803376 1.476887 -7.157042
    CHANNELS 3 Zrotation Xrotation Yrotation
    JOINT KneeRight
    {
      OFFSET 11.084490 -34.575955 -2.449621
      CHANNELS 3 Zrotation Xrotation Yrotation
      JOINT AnkleRight
      {
        OFFSET 6.670188 -35.067440 6.163398
        CHANNELS 3 Zrotation Xrotation Yrotation
        JOINT FootRight
        {
          OFFSET -4.477422 -4.305650 -11.845083
          CHANNELS 3 Zrotation Xrotation Yrotation
          End Site
          {
            OFFSET 0 0 0
          }
        }
      }
    }
  }
}
MOTION
Frames: 13
Frame Time: 0.033333
15.536475 80.264760 356.488571 -0.000000 0.000000 32.717845 -0.000000 0.000000 -32.717845 -0.000000 0.000000 0.000000 -0.000000 0.000000 0.000000 0.000000 0.000000 0.000000 -0.000000 0.000000 0.000000 -0.000000 0.000000 0.000000 -0.000000 0.000000 0.000000 -0.000000 0.000000 0.000000 0.000000 0.000000 0.000000 0.000000 0.000000 0.000000 -0.000000 0.000000 0.000000 -0.000000 0.000000 0.000000 -0.000000 0.000000 0.000000 -0.000000 0.000000 0.000000 0.000000 0.000000 0.000000 0.000000 0.000000 0.000000 -0.000000 0.000000 -32.717845 -0.000000 0.000000 0.000000 -0.000000 0.000000 0.000000 0.000000 0.000000 0.000000 -0.000000 0.000000 -32.717845 -0.000000 0.000000 0.000000 -0.000000 0.000000 0.000000 0.000000 0.000000 0.000000
15.547422 80.267605 356.513625 0.262477 -0.043060 32.460596 -0.198358 0.177209 -32.460191 -0.000000 0.000000 0.000000 -0.000000 0.000000 0.000000 0.000000 0.000000 0.000000 -0.342870 -0.942520 0.074198 0.344137 0.942058 -0.079847 -4.076107 -3.881176 0.444110 4.950722 0.286970 -0.393181 0.000000 0.000000 0.000000 0.000000 0.000000 0.000000 -0.130837 -1.189701 -0.399941 4.263852 0.343191 -0.684452 3.625092 -0.395933 0.409060 -2.102905 0.649997 -0.037707 0.000000 0.000000 0.000000 0.000000 0.000000 0.000000 -0.198358 0.177209 -32.460191 -0.000000 0.000000 0.000000 -1.165439 2.237539 0.653712 0.000000 0.000000 0.000000 -0.198358 0.177209 -32.460191 -0.000000 0.000000 0.000000 -0.835792 1.953523 0.267378 0.000000 0.000000 0.000000
15.598751 80.265861 356.546839 0.538841 -0.089815 32.144288 -0.408463 0.362734 -32.142573 -0.000000 0.000000 0.000000 -0.000000 0.000000 0.000000 0.000000 0.000000 0.000000 -0.578426 -1.759926 0.135193 -0.046620 0.881847 0.126639 -6.670380 -5.593219 0.531841 8.981410 -0.150550 -1.014927 0.000000 0.000000 0.000000 0.000000 0.000000 0.000000 -0.208006 -2.212715 -0.753744 7.983043 0.606859 -1.387868 6.720458 -0.642683 0.777480 -3.929911 1.219849 -0.099837 0.000000 0.000000 0.000000 0.000000 0.000000 0.000000 -0.408463 0.362734 -32.142573 -0.000000 0.000000 0.000000 -2.031612 3.970793 1.141309 0.000000 0.000000 0.000000 -0.408463 0.362734 -32.142573 -0.000000 0.000000 0.000000 -1.348825 3.207830 0.378194 0.000000 0.000000 0.000000
15.690463 80.259527 356.588212 0.829025 -0.140254 31.767744 -0.631014 0.555686 -31.763669 -0.000000 0.000000 0.000000 -0.000000 0.000000 0.000000 0.000000 0.000000 0.000000 -0.710272 -2.457888 0.186420 -0.229133 1.350983 0.181771 -8.646065 -6.620841 0.714388 12.010306 -1.217654 -1.657183 0.000000 0.000000 0.000000 0.000000 0.000000 0.000000 -0.232325 -3.082517 -1.063624 11.111049 0.818227 -2.054579 9.079248 -0.755282 1.104918 -5.285082 1.683029 -0.198655 0.000000 0.000000 0.000000 0.000000 0.000000 0.000000 -0.631014 0.555686 -31.763669 -0.000000 0.000000 0.000000 -2.595684 5.227712 1.445082 0.000000 0.000000 0.000000 -1.408525 0.334318 -31.910881 0.542962 0.598910 0.150413 -1.577229 3.869202 0.331910 0.000000 0.000000 0.000000
15.822557 80.248602 356.637746 1.132953 -0.194363 31.329261 -0.866766 0.755059 -31.321628 -0.000000 0.000000 0.000000 -0.000000 0.000000 0.000000 0.000000 0.000000 0.000000 -0.740996 -3.041225 0.230489 -0.514748 1.846378 0.233115 -9.678910 -6.430391 0.968750 14.025907 -2.780988 -2.190339 0.000000 0.000000 0.000000 0.000000 0.000000 0.000000 -0.204487 -3.810644 -1.331721 13.626444 1.004411 -2.643985 10.639843 -0.765872 1.394450 -6.091569 2.036318 -0.339301 0.000000 0.000000 0.000000 0.000000 0.000000 0.000000 -0.866766 0.755059 -31.321628 -0.000000 0.000000 0.000000 -2.857803 6.032432 1.554477 0.000000 0.000000 0.000000 -1.910338 0.624605 -31.460721 0.821980 0.655956 0.146952 -1.540198 3.990455 0.125927 0.000000 0.000000 0.000000
15.995034 80.233088 356.695440 1.450534 -0.252125 30.826613 -1.116542 0.959714 -30.814070 0.911241 -0.317461 0.068808 -1.443526 -0.386596 -0.268577 0.000000 0.000000 0.000000 -1.586800 -3.194614 0.209187 -0.902257 2.372212 0.281328 -9.765375 -5.007602 1.327576 15.038533 -4.720080 -2.559464 0.000000 0.000000 0.000000 0.000000 0.000000 0.000000 -1.040755 -4.088175 -1.623300 15.524871 1.189545 -3.127866 11.419763 -0.708619 1.652346 -6.342250 2.288195 -0.521224 0.000000 0.000000 0.000000 0.000000 0.000000 0.000000 -1.730788 1.531960 -30.784278 0.820476 -0.177208 -0.015167 -2.819996 6.401936 1.464669 0.000000 0.000000 0.000000 -2.433455 0.999943 -30.915501 1.150238 0.642167 0.117505 -1.240993 3.579248 -0.246352 0.000000 0.000000 0.000000
16.360251 80.217283 356.706188 1.955877 -0.227782 30.223034 -0.906065 0.431619 -30.185423 0.187714 -0.010163 0.057129 -1.785027 -0.374962 -0.270445 0.000000 0.000000 0.000000 -1.532310 -3.504465 0.225425 -1.569122 2.774431 0.362395 -8.118921 0.313673 2.117280 15.175753 -10.077801 -2.732440 0.000000 0.000000 0.000000 0.000000 0.000000 0.000000 -1.208271 -4.467314 -1.790050 16.798102 1.194926 -3.428730 11.291022 -0.601143 1.914059 -5.997853 2.992865 -1.120764 0.000000 0.000000 0.000000 0.000000 0.000000 0.000000 -2.723717 1.898353 -30.140671 1.352644 -0.043592 -0.030866 -1.894480 5.369558 0.799643 0.000000 0.000000 0.000000 -3.421065 1.491230 -30.247723 1.842912 1.550777 0.261771 -0.627772 1.402951 -1.034138 0.000000 0.000000 0.000000
16.661311 80.200937 356.758476 2.368141 -0.278805 29.424321 -1.100063 0.515373 -29.376144 0.120360 0.027377 0.061244 -1.969235 -0.340173 -0.269013 0.000000 0.000000 0.000000 -1.379052 -3.658509 0.239841 -2.118590 3.460312 0.368814 -5.532229 5.118064 2.449509 11.680679 -14.287396 -1.775720 0.000000 0.000000 0.000000 0.000000 0.000000 0.000000 -1.120505 -4.696910 -1.924442 17.338480 1.245915 -3.564556 9.122875 0.110399 1.859279 -3.941529 1.545510 -0.538971 0.000000 0.000000 0.000000 0.000000 0.000000 0.000000 -3.436260 2.223280 -29.305871 1.716258 0.026720 -0.041633 -0.708280 3.487683 0.043756 0.000000 0.000000 0.000000 -4.140929 2.086536 -29.324882 2.399885 1.367415 0.176240 -1.574245 3.264490 -0.447243 0.000000 0.000000 0.000000
16.966490 80.183501 356.840117 2.695017 -0.378313 28.726981 -1.237462 0.609532 -28.668582 -0.000277 0.101008 0.059634 -1.907326 -0.281284 -0.259402 0.000000 0.000000 0.000000 -1.135138 -3.887411 0.265291 -2.872542 4.235217 0.432841 -3.148676 9.447622 2.635868 8.451357 -14.866923 -2.075456 0.000000 0.000000 0.000000 0.000000 0.000000 0.000000 -0.982654 -5.015717 -2.066967 17.525601 1.568052 -3.651824 7.699673 0.289889 2.047641 -2.402850 0.998115 -0.473578 0.000000 0.000000 0.000000 0.000000 0.000000 0.000000 -3.990030 2.721467 -28.570040 2.678013 -0.686718 -0.005624 1.898845 -3.168054 -1.562168 0.000000 0.000000 0.000000 -4.719401 2.740948 -28.469984 2.919306 1.048889 0.055709 -1.752771 3.584370 -0.286123 0.000000 0.000000 0.000000
17.167991 80.144639 357.032441 2.842569 -0.622489 28.071779 -1.235845 0.653041 -28.002675 -0.117612 0.168218 0.056356 -1.326215 0.461690 -0.091213 0.000000 0.000000 0.000000 -0.928424 -3.946605 0.290594 -3.348588 5.273421 0.404935 -1.205400 12.156667 2.652325 8.296662 -16.070861 -2.899223 0.000000 0.000000 0.000000 0.000000 0.000000 0.000000 -0.765056 -5.257866 -2.229338 17.149849 2.218017 -3.647912 6.820386 0.181278 2.234527 -1.239270 0.611262 -0.436673 0.000000 0.000000 0.000000 0.000000 0.000000 0.000000 -4.182830 3.645263 -27.875054 3.050085 -1.515598 -0.015663 -1.257865 5.722505 -0.117377 0.000000 0.000000 0.000000 -4.833680 3.481286 -27.619582 3.228434 0.586675 -0.093863 1.128391 -1.881967 -2.691655 0.000000 0.000000 0.000000
17.291198 80.078142 357.307194 2.905955 -0.934531 27.544389 -1.099666 0.636849 -27.463475 -0.202125 0.193057 0.058182 -1.432769 0.687774 -0.092624 0.000000 0.000000 0.000000 -0.635401 -3.800500 0.307332 -3.638504 6.488466 0.244662 -0.000105 11.817260 2.451848 9.229915 -19.251297 -2.590659 0.000000 0.000000 0.000000 0.000000 0.000000 0.000000 -0.498145 -5.210701 -2.352269 16.370781 2.694960 -3.514570 6.173614 -0.010921 2.393729 -0.094176 0.043946 -0.281931 0.000000 0.000000 0.000000 0.000000 0.000000 0.000000 -4.570828 4.972209 -27.270893 3.794106 -2.814034 -0.041542 -0.825708 5.632716 -0.234257 0.000000 0.000000 0.000000 -4.677488 4.253669 -26.887741 3.429969 0.064259 -0.241682 4.880676 -10.307464 -5.326108 0.000000 0.000000 0.000000
17.318487 79.983520 357.669757 2.958268 -1.269820 27.053459 -0.989510 0.617072 -26.961064 -0.248698 0.188106 0.061224 -1.846800 -0.048748 -0.445720 0.000000 0.000000 0.000000 -0.136317 -3.614276 0.330918 -3.974412 7.827776 0.025274 0.640661 9.843602 2.242931 9.748872 -20.197908 -2.272174 0.000000 0.000000 0.000000 0.000000 0.000000 0.000000 -0.181619 -4.926192 -2.426407 15.808241 2.891917 -3.436929 5.884772 -0.655766 2.954243 0.003781 -0.161802 -0.261303 0.000000 0.000000 0.000000 0.000000 0.000000 0.000000 -5.156979 6.688184 -26.658599 4.963028 -4.605883 -0.045543 -2.910307 11.912826 0.953014 0.000000 0.000000 0.000000 -4.358590 5.037520 -26.193322 3.312617 -0.415555 -0.409992 7.759410 -16.869162 -7.257747 0.000000 0.000000 0.000000
17.196545 79.801151 358.102739 3.153457 -1.558249 26.508788 -0.844142 0.542363 -26.399065 -0.235290 0.151026 0.077389 -2.281272 -0.530690 -0.757750 0.000000 0.000000 0.000000 0.127599 -3.253835 0.317366 -3.963010 8.655959 -0.271394 1.340923 8.107672 1.950655 9.892729 -19.135394 -2.468325 0.000000 0.000000 0.000000 0.000000 0.000000 0.000000 -0.037578 -4.758092 -2.582813 15.345604 3.209875 -3.399037 5.370411 -0.719307 3.071456 -0.392291 0.677248 -0.730528 0.000000 0.000000 0.000000 0.000000 0.000000 0.000000 -5.960536 8.247232 -25.961193 6.046844 -6.157089 -0.045325 -3.976334 15.956877 1.623936 0.000000 0.000000 0.000000 -4.009911 5.911604 -25.420479 3.073741 -1.012249 -0.603427 9.163844 -19.985528 -8.594905 0.000000 0.000000 0.000000
